<?xml version="1.0" encoding="iso-8859-1"?>
<!-- Uploaded to: SVG Repo, www.svgrepo.com, Generator: SVG Repo Mixer Tools -->
<svg fill="white" height="40px" width="70px" version="1.1" id="Layer_1" xmlns="http://www.w3.org/2000/svg" xmlns:xlink="http://www.w3.org/1999/xlink" 
	 viewBox="0 0 300 300" xml:space="preserve">
<g>
	<g>
		<g>
			<path d="M295.781,122.225c-0.031-0.681-0.181-1.337-0.431-1.962c-4.737-24.5-28.825-42.144-57.85-42.144
				c-13.438,0-24.713,6.131-34.412,18.75h-52.817c0.928-10.089,4.144-14.879,7.786-20.263c5.012-7.406,10.688-15.8,10.688-35.981
				c0-3.456-2.794-6.25-6.25-6.25s-6.25,2.794-6.25,6.25c0,16.356-3.956,22.206-8.538,28.981
				c-4.207,6.223-8.905,13.167-9.983,27.263h-34.636C92.444,83.944,75.375,78.119,62.5,78.119
				c-26.987,0-48.131,18.462-52.688,46.269C8.806,133.7,0,215.469,0,221.869c0,20.231,16.381,43.75,37.5,43.75
				c14.287,0,31.237-6.869,37.306-22.169c0.075-0.156,0.144-0.319,0.212-0.475l12.938-31.65c5.619,4.537,12.769,8.281,21.013,8.281
				c15.744,0,29.775-9.325,35.181-22.744h17.2c5.238,12.163,18.694,20.031,35.119,20.031c6.838,0,14.306-0.587,20.806-4.1
				l13.206,30.325c0.044,0.125,0.1,0.237,0.169,0.356c5.662,14.706,16.362,22.15,31.844,22.15c21.119,0,37.5-23.519,37.506-43.763
				C300,215.544,295.956,126.037,295.781,122.225z M262.494,253.125c-10.35,0-16.637-4.531-20.375-14.662
				c-0.119-0.325-0.275-0.644-0.444-0.944l-16.137-37.05c-0.856-1.969-2.65-3.344-4.763-3.681c-2.125-0.319-4.244,0.431-5.65,2.031
				c-3.563,4.031-8.787,5.6-18.638,5.6c-12.769,0-22.387-5.963-24.531-15.194c-0.669-2.831-3.181-4.837-6.094-4.837H139.6
				c-2.906,0-5.444,2.006-6.094,4.837c-2.369,10.206-12.919,17.894-24.538,17.894c-7.919,0-15.075-6.769-18.631-10.806
				c-1.431-1.625-3.625-2.362-5.731-2.025c-2.138,0.35-3.925,1.8-4.75,3.794l-16.175,39.588c-0.144,0.244-0.256,0.513-0.363,0.781
				c-3.744,10.131-15.662,14.675-25.825,14.675c-13.463,0-25-17.181-25-31.25c0.006-4.369,5.981-61.281,9.7-95.787
				c3.519-21.544,19.338-35.463,40.3-35.463c10.144,0,24.612,5.025,32.388,16.088c1.169,1.675,3.081,2.662,5.112,2.662h106.25
				c2.031,0,3.938-0.987,5.113-2.662c7.825-11.125,15.881-16.088,26.137-16.088c20.05,0,42.2,11.313,45.738,32.963
				c0.037,0.162,0.075,0.344,0.119,0.5c1.463,32.5,4.144,93.012,4.144,97.787C287.494,235.944,275.956,253.125,262.494,253.125z"/>
			<path d="M74.994,146.875h-12.5v-12.5c0-3.456-2.794-6.25-6.25-6.25c-3.456,0-6.25,2.794-6.25,6.25v12.5h-12.5
				c-3.456,0-6.25,2.794-6.25,6.25s2.794,6.25,6.25,6.25h12.5v12.5c0,3.456,2.794,6.25,6.25,6.25c3.456,0,6.25-2.794,6.25-6.25
				v-12.5h12.5c3.456,0,6.25-2.794,6.25-6.25S78.45,146.875,74.994,146.875z"/>
			<path d="M137.494,146.875h-12.5c-3.456,0-6.25,2.794-6.25,6.25s2.794,6.25,6.25,6.25h12.5c3.456,0,6.25-2.794,6.25-6.25
				S140.95,146.875,137.494,146.875z"/>
			<path d="M174.994,146.875h-12.5c-3.456,0-6.25,2.794-6.25,6.25s2.794,6.25,6.25,6.25h12.5c3.456,0,6.25-2.794,6.25-6.25
				S178.45,146.875,174.994,146.875z"/>
			<path d="M209.869,125.5c-2.313,2.375-3.625,5.563-3.625,8.875c0,3.306,1.313,6.5,3.625,8.813
				c2.375,2.375,5.563,3.688,8.875,3.688c3.25,0,6.5-1.313,8.813-3.688c2.375-2.313,3.688-5.563,3.688-8.813
				c0-3.263-1.313-6.5-3.688-8.875C222.869,120.875,214.556,120.875,209.869,125.5z"/>
			<path d="M247.431,113c-2.375,2.375-3.688,5.563-3.688,8.875c0,3.237,1.313,6.5,3.688,8.813c2.313,2.375,5.5,3.688,8.813,3.688
				c3.306,0,6.5-1.313,8.813-3.688c2.375-2.313,3.688-5.563,3.688-8.813c0-3.313-1.313-6.5-3.688-8.875
				C260.431,108.375,252.056,108.375,247.431,113z"/>
			<path d="M209.869,163.063c-2.313,2.313-3.625,5.5-3.625,8.813c0,3.306,1.313,6.5,3.625,8.813
				c2.375,2.375,5.563,3.688,8.875,3.688c3.25,0,6.5-1.313,8.813-3.688c2.375-2.313,3.688-5.506,3.688-8.813
				c0-3.244-1.313-6.5-3.688-8.813C222.869,158.375,214.556,158.375,209.869,163.063z"/>
			<path d="M247.431,150.5c-2.375,2.375-3.688,5.563-3.688,8.875c0,3.237,1.313,6.5,3.688,8.813c2.313,2.375,5.5,3.688,8.813,3.688
				c3.306,0,6.5-1.313,8.813-3.688c2.375-2.313,3.688-5.563,3.688-8.813c0-3.313-1.313-6.5-3.688-8.875
				C260.431,145.875,252.056,145.875,247.431,150.5z"/>
		</g>
	</g>
</g>
</svg>